<?xml version="1.0" encoding="utf-8"?>

<!DOCTYPE svg PUBLIC "-//W3C//DTD SVG 1.1//EN" "http://www.w3.org/Graphics/SVG/1.1/DTD/svg11.dtd">
<svg version="1.1" id="Layer_1" xmlns="http://www.w3.org/2000/svg" xmlns:xlink="http://www.w3.org/1999/xlink" x="0px" y="0px"
	 viewBox="0 0 1650.969 774.665" enable-background="new 0 0 1650.969 774.665" xml:space="preserve">
<path fill="#754C24" stroke="#754C24" stroke-width="0.5" d="M179.309,174.904c10.31-5.26,21.17-10,32.8-11.21
	c12.53-1.27,25.18-0.96,37.71,0.16c14.48,1.57,29.1,4.13,42.42,10.24c9.05,4.4,17.18,11.8,27.68,12.31
	c5.33,0.39,11.3-4.11,10.63-9.8c-0.54-3.75-1.69-7.41-1.71-11.22c7.08-0.16,13.26,4.21,17.52,9.53
	c8.04,10.02,12.57,22.4,15.06,34.89c1.67,8.7,2.45,17.98-0.64,26.48c-3.3,9.18-10.29,16.39-17.84,22.3
	c-0.27,10.26-0.06,20.52-0.05,30.78c-1.27,0.41-2.55,0.81-3.82,1.23c0.04-10.75,0.03-21.5,0.06-32.25
	c0.17-4.73-2.58-8.77-3.99-13.11c-1.11-2.93-1.64-6.08-3.14-8.85c-2.05-3.25-5.92-4.65-9.48-5.5c-8.08-1.72-16.42-1.21-24.58-0.47
	c-24.14,2.39-47.74,8.19-71.61,12.23c-5.45,0.84-10.93,1.77-16.46,1.64c-4.2-0.03-7.42-3.05-11-4.79c-7.45-4.1-17.1-5.27-24.67-0.84
	c-8.05,4.76-13,13.3-16.06,21.89c-1.36,4.18-2.82,8.79-1.42,13.16c0.97,2.88,3.8,4.44,6.11,6.13c-1.04,2.15-2.07,4.29-3.1,6.44
	c-4.89-3.65-9.11-8.07-13.64-12.14c-5.33-6.33-6.96-14.81-7.98-22.8c-1.43-15.99,0.46-32.26,5.14-47.6
	c1.16-4.29,3.88-7.97,7.42-10.61C159.529,186.064,169.259,180.134,179.309,174.904z"/>
<path fill="#F0D0B4" stroke="#F0D0B4" stroke-width="0.5" d="M297.939,230.414c8.16-0.74,16.5-1.25,24.58,0.47
	c3.56,0.85,7.43,2.25,9.48,5.5c1.5,2.77,2.03,5.92,3.14,8.85c1.41,4.34,4.16,8.38,3.99,13.11c-0.03,10.75-0.02,21.5-0.06,32.25
	c-0.17,28,0.02,56.02,0.06,84.03c-0.11,0.62-0.33,1.87-0.44,2.49c-1.16,0.2-2.32,0.41-3.48,0.62c-16.05-0.4-32.12-0.06-48.18-0.23
	c-5.78,0.01-11.56-0.03-17.33,0.15c-1.47,0.02-2.94,0-4.4-0.01c-30.54-0.14-61.08-0.17-91.62,0.02c-0.4-0.14-1.2-0.42-1.61-0.57
	c-0.31-1.62-0.65-3.24-0.92-4.86c-1.38-11.55-3.18-23.06-5.7-34.42c-1.32-5.31-2.36-11.06-6.28-15.17c-2.18,1.05-4.34,3.08-6.91,2.6
	c-3.89-2.84-4.8-7.98-5.82-12.38c-2.35-12.77-2.62-25.93-0.35-38.73c4.53,4.07,8.75,8.49,13.64,12.14c1.03-2.15,2.06-4.29,3.1-6.44
	c-2.31-1.69-5.14-3.25-6.11-6.13c-1.4-4.37,0.06-8.98,1.42-13.16c3.06-8.59,8.01-17.13,16.06-21.89c7.57-4.43,17.22-3.26,24.67,0.84
	c3.58,1.74,6.8,4.76,11,4.79c5.53,0.13,11.01-0.8,16.46-1.64C250.199,238.604,273.799,232.804,297.939,230.414 M150.549,293.294
	c2.15,0.06,4.3,0.06,6.46,0.04c-0.85,2.28-2.66,4.78-1.26,7.23c2.09,4.18,4.5,8.8,8.86,10.97c0.44-5.41,0.28-11.04-1.67-16.16
	C161.069,290.624,153.579,288.554,150.549,293.294 M268.299,297.834c-4.91,1.4-6.48,8.48-2.54,11.77c3.5,3.56,10.32,1.63,11.41-3.25
	C278.899,301.254,273.279,295.904,268.299,297.834 M319.339,297.894c-4.73,1.5-6.23,8.28-2.5,11.59c3.37,3.6,10.08,1.94,11.45-2.78
	C330.399,301.534,324.469,295.724,319.339,297.894 M277.039,340.534c-0.14,5.14,0.76,10.57,4.01,14.72
	c2.38,2.89,6.44,3.21,9.91,3.53c7.35,0.36,14.76-0.57,21.87-2.44c2.13-0.67,4.59-1.26,5.85-3.28c2.61-4.14,3.84-8.94,5.24-13.58
	C308.289,339.724,292.669,340.154,277.039,340.534z"/>
<path fill="#F0D0B4" stroke="#F0D0B4" stroke-width="0.5" d="M118.039,284.534c4.89-6.49,15.86-6.34,20.62,0.21
	c2.12,2.71,1.64,6.31,1.56,9.51c-7.96-0.13-15.93,1.04-23.88,0.23C116.389,291.134,115.579,287.284,118.039,284.534z"/>
<path fill="#D6A77D" stroke="#D6A77D" stroke-width="0.5" d="M150.549,293.294c3.03-4.74,10.52-2.67,12.39,2.08
	c1.95,5.12,2.11,10.75,1.67,16.16c-4.36-2.17-6.77-6.79-8.86-10.97c-1.4-2.45,0.41-4.95,1.26-7.23
	C154.849,293.354,152.699,293.354,150.549,293.294z"/>
<path fill="#E1E1E1" stroke="#E1E1E1" stroke-width="0.5" d="M116.339,294.484c7.95,0.81,15.92-0.36,23.88-0.23
	c-0.94,16.98,0.29,34.43,6.45,50.43c4.71,12.12,12.8,23.47,24.46,29.72c0-0.54,0.01-1.63,0.02-2.17c0.27,1.62,0.61,3.24,0.92,4.86
	c0.41,0.15,1.21,0.43,1.61,0.57c5.13,2.19,10.59,3.4,15.92,4.97c15.56,4.5,31.2,8.73,46.74,13.32c2.77,0.78,5.51,1.88,8.42,2
	c2.03-0.56,3.35-2.49,4.88-3.85c5.09-5.61,11.03-10.43,15.66-16.46c1.46,0.01,2.93,0.03,4.4,0.01c2.15,2.3,4.38,4.53,6.55,6.83
	c-1.62,3.43-3.74,6.89-3.36,10.85c0.2,18.28-0.24,36.59,0.21,54.86c2.57,4.14,6.8,7.07,10.09,10.67c2.94-4.39,8.1-8.67,6.67-14.52
	c-2.2-18.07-4.35-36.15-6.4-54.25c-0.81-4.92,0.27-9.86,3.15-13.93c5.47,6.17,9.12,13.64,14.24,20.08
	c11.61-6.58,22.93-13.64,34.36-20.51c1.16-0.21,2.32-0.42,3.48-0.62c0.11-0.62,0.33-1.87,0.44-2.49
	c7.67-3.93,13.97-10.06,19.07-16.93c8.72-11.89,14.79-25.53,19.36-39.5c8.16-0.05,16.48,0.36,24.47-1.6
	c-3.64,11.74-9.45,22.68-15.66,33.23c-10.44,17.3-23.58,32.97-38.88,46.18c-2.63,2.33-5.69,4.21-8.02,6.88
	c-0.55,1.76-0.48,3.64-0.53,5.47c0.21,27.73-0.2,55.45,0.17,83.18l-0.05,0.87c-1.49,0.01-2.97,0.03-4.45,0.05
	c-55.45-0.17-110.9,0.06-166.36-0.12c0.01-0.8,0.01-2.4,0.01-3.2c-0.08-25.77,0.33-51.55-0.2-77.31c-0.01-2.13,0.06-4.25,0.11-6.37
	c-4.72-3.73-9.71-7.14-14.19-11.18c-11.28-9.94-20.83-21.98-27.24-35.63C117.219,338.814,114.519,316.244,116.339,294.484z"/>
<path fill="#252525" stroke="#252525" stroke-width="0.5" d="M268.299,297.834c4.98-1.93,10.6,3.42,8.87,8.52
	c-1.09,4.88-7.91,6.81-11.41,3.25C261.819,306.314,263.389,299.234,268.299,297.834z"/>
<path fill="#252525" stroke="#252525" stroke-width="0.5" d="M319.339,297.894c5.13-2.17,11.06,3.64,8.95,8.81
	c-1.37,4.72-8.08,6.38-11.45,2.78C313.109,306.174,314.609,299.394,319.339,297.894z"/>
<path fill="#F0D0B4" stroke="#F0D0B4" stroke-width="0.5" d="M379.439,308.814c4.91-6.4,16.02-6.17,20.67,0.41
	c1.6,2.1,1.78,4.83,1.92,7.37c-7.99,1.96-16.31,1.55-24.47,1.6C377.829,315.034,377.229,311.434,379.439,308.814z"/>
<path fill="#252525" stroke="#252525" stroke-width="0.5" d="M483.439,313.094c1.31-2.36,2.11-6,5.21-6.48
	c3.72,0.62,7.49,0.94,11.27,0.79c19.45-0.37,38.92,0.44,58.35-0.43c1.86,1.8,3.94,3.49,5.29,5.76c0.61,4.18,0.16,8.44,0.26,12.65
	c0.06,29.02-0.16,58.04,0.14,87.05c-0.06,1.7-0.44,3.42-1.31,4.92c-3.77,0.89-7.73,0.01-11.57,0.33c0.25,5.24,1.01,10.44,1.62,15.65
	c0.42,4.43,0.94,8.84,1.38,13.27c3.18,0.12,6.36,0.16,9.55,0.18c0.15,2.24,0.31,4.49,0.53,6.74c-19.89-0.47-39.8-0.29-59.69-0.1
	c-0.31-2.28-0.38-5.15,1.9-6.48c9.49-0.56,19.02,0.15,28.53-0.28c0.04-4.43,0.04-8.86,0.02-13.28c0.01-5.09,0.03-10.17-0.02-15.24
	c-12-0.24-23.99-0.03-35.99-0.12c-3.86-0.19-7.65,1.04-11.5,0.78c-2.82-0.76-2.99-4.09-3.83-6.37c1.11,0.63,2.25,1.24,3.39,1.87
	c-0.19-13.31-1.22-26.59-1.2-39.91C484.739,353.974,484.849,333.504,483.439,313.094z"/>
<path fill="#201007" stroke="#201007" stroke-width="0.5" d="M488.649,306.614c4.72-0.77,9.51-0.41,14.27-0.46
	c15-0.01,30,0.03,44.99-0.02c3.45,0.06,7.05-0.42,10.36,0.84c-19.43,0.87-38.9,0.06-58.35,0.43
	C496.139,307.554,492.369,307.234,488.649,306.614z"/>
<path fill="#464747" stroke="#464747" stroke-width="0.5" d="M481.259,318.204c0.47-1.81,1.4-3.44,2.18-5.11
	c1.41,20.41,1.3,40.88,2.33,61.3c-0.02,13.32,1.01,26.6,1.2,39.91c-1.14-0.63-2.28-1.24-3.39-1.87c-0.78-1.37-1.72-2.67-2.2-4.16
	c0.89-5.25,0.52-10.59,0.52-15.88c0.02-22-0.06-44,0.05-66C481.939,323.644,481.569,320.924,481.259,318.204z"/>
<path fill="#46362D" stroke="#46362D" stroke-width="0.5" d="M481.259,318.204c0.31,2.72,0.68,5.44,0.69,8.19
	c-0.11,22-0.03,44-0.05,66c0,5.29,0.37,10.63-0.52,15.88c-0.68-1.9-0.79-3.93-0.81-5.92c0.12-23.32,0.04-46.64,0.05-69.96
	C480.679,327.664,480.209,322.854,481.259,318.204z"/>
<path fill="#790000" stroke="#790000" stroke-width="0.5" d="M277.039,340.534c15.63-0.38,31.25-0.81,46.88-1.05
	c-1.4,4.64-2.63,9.44-5.24,13.58c-1.26,2.02-3.72,2.61-5.85,3.28c-7.11,1.87-14.52,2.8-21.87,2.44c-3.47-0.32-7.53-0.64-9.91-3.53
	C277.799,351.104,276.899,345.674,277.039,340.534z"/>
<path fill="#FFFFFF" stroke="#FFFFFF" stroke-width="0.5" d="M173.679,377.664c30.54-0.19,61.08-0.16,91.62-0.02
	c-4.63,6.03-10.57,10.85-15.66,16.46c-1.53,1.36-2.85,3.29-4.88,3.85c-2.91-0.12-5.65-1.22-8.42-2
	c-15.54-4.59-31.18-8.82-46.74-13.32C184.269,381.064,178.809,379.854,173.679,377.664z"/>
<path fill="#FF0000" stroke="#FF0000" stroke-width="0.5" d="M269.699,377.654c5.77-0.18,11.55-0.14,17.33-0.15l-0.42,0.66
	c-2.88,4.07-3.96,9.01-3.15,13.93c2.05,18.1,4.2,36.18,6.4,54.25c1.43,5.85-3.73,10.13-6.67,14.52c-3.29-3.6-7.52-6.53-10.09-10.67
	c-0.45-18.27-0.01-36.58-0.21-54.86c-0.38-3.96,1.74-7.42,3.36-10.85C274.079,382.184,271.849,379.954,269.699,377.654z"/>
<path fill="#FFFFFF" stroke="#FFFFFF" stroke-width="0.5" d="M287.029,377.504c16.06,0.17,32.13-0.17,48.18,0.23
	c-11.43,6.87-22.75,13.93-34.36,20.51c-5.12-6.44-8.77-13.91-14.24-20.08L287.029,377.504z"/>
<path fill="#252636" stroke="#252636" stroke-width="0.5" d="M160.569,405.184c1.97,0.04,3.94,0.08,5.91,0.22l0.23,0.89
	c-1.54,0.07-3.08,0.15-4.62,0.24c-0.45,35.66-0.05,71.33-0.22,107l-0.98,0.08c-0.5-7.4-0.21-14.82-0.27-22.22
	C160.569,462.654,160.709,433.914,160.569,405.184z"/>
<path fill="#273650" stroke="#273650" stroke-width="0.5" d="M162.089,406.534c1.54-0.09,3.08-0.17,4.62-0.24
	c0.44,1.83,0.87,3.68,1.35,5.53c0.53,25.76,0.12,51.54,0.2,77.31c-0.82,0.13-2.46,0.4-3.28,0.53c0.79,2.52,1.58,5.04,2.36,7.57
	c-0.71,5.44-0.78,10.93-0.43,16.4c-1.68-0.07-3.36-0.12-5.04-0.1C162.039,477.864,161.639,442.194,162.089,406.534z"/>
<path fill="#E1E1E1" stroke="#E1E1E1" stroke-width="0.5" d="M387.889,453.334c14.01-0.23,28.02-0.01,42.03-0.08
	c24.55,0.13,49.1-0.28,73.64,0.2c3.09,0.59,6.21,1.07,9.36,0.99c10.33-0.18,20.67-0.04,31-0.09c6.75-0.14,13.58,0.65,20.24-0.83
	c16.23-0.64,32.51-0.09,48.76-0.27c25.23,0.14,50.47-0.29,75.7,0.2c-0.05,18.03-0.06,36.05-0.01,54.08
	c-6.51,0.21-13.02,0.16-19.52,0.04c-37.27-0.02-74.55-0.13-111.82,0.05c0.14,38.35-0.03,76.69,0.11,115.04
	c-7.47,0.05-14.94,0.2-22.4-0.13c-0.09-5.34-0.07-10.68-0.05-16.02c-0.05-32.99,0.11-65.98-0.08-98.96
	c-6.34-0.08-12.67-0.05-19.01,0.03c-6.34,0.1-12.69,0.12-19.03,0c-28.88-0.06-57.77-0.11-86.65,0.02
	c-0.03,35.21,0.03,70.42-0.03,105.63c-0.01,3.09-0.05,6.2-0.1,9.31c-7.37,0.28-14.75,0.28-22.11,0c-0.06-2.06-0.11-4.1-0.13-6.14
	C387.859,562.044,387.659,507.694,387.889,453.334z"/>
<path fill="#F9F9F8" stroke="#F9F9F8" stroke-width="0.5" d="M503.559,453.454l0.91-0.03c19.89-0.19,39.8-0.37,59.69,0.1
	c-6.66,1.48-13.49,0.69-20.24,0.83c-10.33,0.05-20.67-0.09-31,0.09C509.769,454.524,506.649,454.044,503.559,453.454z"/>
<path fill="#362F2D" stroke="#362F2D" stroke-width="0.5" d="M164.979,489.664c0.82-0.13,2.46-0.4,3.28-0.53c0,0.8,0,2.4-0.01,3.2
	c55.46,0.18,110.91-0.05,166.36,0.12c10.16,18.45,21.42,36.42,29.22,56.06c1.55,4.11,3.16,8.35,3.06,12.83
	c-0.06,5.16-0.52,10.4,0.61,15.5c0.88,4.54,3.36,8.81,2.81,13.57c-6.97-0.43-13.95-0.44-20.89-1.19
	c0.61-11.52-0.71-23.11-2.83-34.43c-2.52-11.92-6.53-24.5-16.03-32.74c-3.67-2.96-8.18-4.75-12.83-5.35
	c-12.19-1.6-24.59-1.82-36.8-0.28c-6.15,0.8-12.39,1.59-18.15,4.01c0.73,5.07,1.78,10.1,3.06,15.07c1.08,5.05,2.25,10.07,3.39,15.11
	c2.56,12.82,6.21,25.9,3.6,39.05c-4.65,0.21-9.32,0.27-13.93-0.4c-2.51-19.33-6.21-39.43-17.14-55.96
	c-4.68-6.06-10.61-12.46-18.81-12.83c-11.12-0.49-22.51-0.39-33.17-4.04c-1.62-0.94-3.17-1.98-4.71-3.01
	c-6.78-4.35-13.31-9.34-17.73-16.19C166.559,494.704,165.769,492.184,164.979,489.664z"/>
<path fill="#273F66" stroke="#273F66" stroke-width="0.5" d="M166.909,513.634c-0.35-5.47-0.28-10.96,0.43-16.4
	c4.42,6.85,10.95,11.84,17.73,16.19C179.019,513.804,172.959,513.884,166.909,513.634z"/>
<path fill="#928F8E" stroke="#928F8E" stroke-width="0.5" d="M496.809,507.584c6.34,0.12,12.69,0.1,19.03,0
	c0,0.74-0.02,2.22-0.03,2.97c-6.37,0.26-12.75,0.25-19.12,0.01C496.719,509.824,496.779,508.324,496.809,507.584z"/>
<path fill="#928F8E" stroke="#928F8E" stroke-width="0.5" d="M669.089,507.574c6.5,0.12,13.01,0.17,19.52-0.04c0,0.75,0,2.24,0,2.99
	c-6.46,0.31-12.93,0.29-19.38,0.02C669.189,509.804,669.129,508.314,669.089,507.574z"/>
<path fill="#D7D7D7" stroke="#D7D7D7" stroke-width="0.5" d="M496.689,510.564c6.37,0.24,12.75,0.25,19.12-0.01
	c-0.02,32.2-0.02,64.41,0,96.62c0.07,5.11,0.1,10.22-0.01,15.34c-6.43,0.35-12.86,0.24-19.29,0.14
	C496.729,585.294,496.419,547.924,496.689,510.564z"/>
<path fill="#D7D7D7" stroke="#D7D7D7" stroke-width="0.5" d="M669.229,510.544c6.45,0.27,12.92,0.29,19.38-0.02
	c0.01,35.54-0.14,71.09,0.08,106.63c-0.03,1.74-0.07,3.49-0.09,5.25c-6.44,0.5-12.91,0.54-19.34-0.05
	c-0.01-3.02-0.02-6.04,0.01-9.06C669.309,579.044,669.389,544.794,669.229,510.544z"/>
<path fill="#586D90" stroke="#586D90" stroke-width="0.5" d="M160.889,513.614l0.98-0.08c1.68-0.02,3.36,0.03,5.04,0.1
	c6.05,0.25,12.11,0.17,18.16-0.21c1.54,1.03,3.09,2.07,4.71,3.01c-0.28,5.58-0.4,11.18-0.08,16.77c-4.33-0.02-8.65-0.01-12.97,0.01
	c-4.3-0.02-8.59,0.06-12.88,0.04c-2.2-0.04-4.4-0.1-6.59-0.16c-0.03-6.15-0.06-12.3,0.09-18.44
	C158.519,514.284,159.689,513.914,160.889,513.614z"/>
<path fill="#27364F" stroke="#27364F" stroke-width="0.5" d="M280.929,516.424c12.21-1.54,24.61-1.32,36.8,0.28
	c4.65,0.6,9.16,2.39,12.83,5.35c-0.39,3.65-0.45,7.32-0.62,10.99c-2.03,0.11-4.05,0.23-6.06,0.36c-0.18,23.23-0.03,46.47-0.07,69.71
	c0.03,4.38,0.01,8.77-0.04,13.17c-4.26,0.16-8.53,0.16-12.79,0.03c-0.08-4.94-0.09-9.87-0.06-14.8
	c-0.03-22.74,0.07-45.49-0.04-68.24c-9.58-0.17-19.17-0.25-28.75,0.05c0.03,19.27,0.01,38.54,0.03,57.81
	c-3.08-0.7-6.19-1.23-9.33-1.47c2.61-13.15-1.04-26.23-3.6-39.05c0.27-5.71,0.22-11.41,0.27-17.11c-1.26-0.09-2.52-0.16-3.77-0.22
	c0.03,0.56,0.08,1.67,0.11,2.22c-1.28-4.97-2.33-10-3.06-15.07C268.539,518.014,274.779,517.224,280.929,516.424z"/>
<path fill="#27364F" stroke="#27364F" stroke-width="0.5" d="M189.779,516.434c10.66,3.65,22.05,3.55,33.17,4.04
	c8.2,0.37,14.13,6.77,18.81,12.83c-6.83-0.19-13.67-0.38-20.49,0.14c0.12,21.65,0.02,43.3,0.06,64.95
	c0.03,5.96,0.21,11.93-0.24,17.89c-4.03,0.21-8.06,0.23-12.08,0.1l0.01-0.81c0.36-2.38,0.75-4.76,0.81-7.16
	c0.13-20,0.04-40.01,0.08-60.02c0.11-4.89,0.27-9.83-0.75-14.64c-6.43-1.2-12.98-0.37-19.46-0.55
	C189.379,527.614,189.499,522.014,189.779,516.434z"/>
<path fill="#27364F" stroke="#27364F" stroke-width="0.5" d="M163.849,533.254c4.29,0.02,8.58-0.06,12.88-0.04
	c-0.29,23.4-0.15,46.81-0.07,70.22c-0.01,0.75-0.05,2.26-0.07,3.01c-4.13,0.38-8.3,0.54-12.42-0.02c-0.09-0.46-0.27-1.37-0.36-1.83
	C163.809,580.814,163.749,557.034,163.849,533.254z"/>
<path fill="#252737" stroke="#252737" stroke-width="0.5" d="M209.159,533.754c1.02,4.81,0.86,9.75,0.75,14.64
	c-0.04,20.01,0.05,40.02-0.08,60.02c-0.06,2.4-0.45,4.78-0.81,7.16c-0.74-6.71-0.38-13.45-0.4-20.18c-0.01-14.67,0-29.33,0-44
	C208.639,545.504,208.339,539.594,209.159,533.754z"/>
<path fill="#111111" stroke="#111111" stroke-width="0.5" d="M256.609,590.564c0.58-0.33,1.72-0.98,2.29-1.3
	c4.61,0.67,9.28,0.61,13.93,0.4c3.14,0.24,6.25,0.77,9.33,1.47c1.9,0.8,3.58,2,5.05,3.46c-2.98,2.25-6.75,2.17-10.3,2.04
	c-6.81-0.19-13.65,0.28-20.42-0.67C256.589,594.154,256.579,592.354,256.609,590.564z"/>
<path fill="#111111" stroke="#111111" stroke-width="0.5" d="M349.419,589.224c6.94,0.75,13.92,0.76,20.89,1.19
	c3.77,0.7,8.11,1.56,9.81,5.49c-10.52,1.08-21.17,0.96-31.7,0.01C348.819,593.684,349.099,591.454,349.419,589.224z"/>
<path fill="#020202" stroke="#020202" stroke-width="0.5" d="M276.909,596.634c3.55,0.13,7.32,0.21,10.3-2.04
	c1.67,1.92,4.41,1.54,6.69,1.95c0,0.75,0.01,2.25,0.02,3c-4.01,0.08-8.01,0.12-12.01,0.15c-4.26-0.01-8.51-0.07-12.76-0.1
	c-4.67,0.04-9.35-0.17-14.01,0.16c0.46-1.27,0.93-2.52,1.35-3.79C263.259,596.914,270.099,596.444,276.909,596.634z"/>
<path fill="#020202" stroke="#020202" stroke-width="0.5" d="M348.419,595.914c10.53,0.95,21.18,1.07,31.7-0.01
	c1.93,0.13,3.86,0.32,5.81,0.48c0,0.8,0.02,2.4,0.03,3.19c-12.79,0.09-25.58,0.13-38.36-0.02
	C347.869,598.334,348.139,597.114,348.419,595.914z"/>
<path fill="#49A2E2" stroke="#49A2E2" stroke-width="0.5" d="M255.139,599.754c4.66-0.33,9.34-0.12,14.01-0.16
	c0.1,3.46,0.15,6.93,0.18,10.41c4.19,0.04,8.38,0.05,12.57,0.02c0.19-3.14,0.37-6.29,0.11-9.42c9.6,0.97,19.28,0.57,28.91,0.91
	c-0.03,4.93-0.02,9.86,0.06,14.8c4.26,0.13,8.53,0.13,12.79-0.03c0.05-4.4,0.07-8.79,0.04-13.17c8.17-0.43,16.28,1.05,24.38,1.95
	c7.76,1.2,15.76,1.93,23.08,4.99c1.44,0.79,4.08,1.91,3.33,4c-2.6,2.56-6.32,3.38-9.74,4.26c-16.39,3.57-33.16,4.78-49.86,5.87
	c-19.67,1.35-39.38,1.42-59.08,1.92c-32.52-0.59-65.15-0.96-97.44-5.35c-8.09-1.42-16.64-2.2-23.78-6.63
	c0.79-1.77,1.95-3.44,3.88-4.06c8-3.4,16.81-3.79,25.23-5.47c0.09,0.46,0.27,1.37,0.36,1.83c4.12,0.56,8.29,0.4,12.42,0.02
	c0.02-0.75,0.06-2.26,0.07-3.01c10.39-0.9,20.8-1.9,31.24-1.92c0.28,4.83,0.18,9.67,0.36,14.51l0.75,0.36
	c4.02,0.13,8.05,0.11,12.08-0.1l0.71-0.35c0.02-5.04-0.18-10.09,0.46-15.09C233.209,599.904,244.239,601.174,255.139,599.754z"/>
<path fill="#27364F" stroke="#27364F" stroke-width="0.5" d="M269.149,599.594c4.25,0.03,8.5,0.09,12.76,0.1l0.1,0.91
	c0.26,3.13,0.08,6.28-0.11,9.42c-4.19,0.03-8.38,0.02-12.57-0.02C269.299,606.524,269.249,603.054,269.149,599.594z"/>
<path fill="#49A2E2" stroke="#49A2E2" stroke-width="0.5" d="M515.809,607.174c6.34-0.77,12.74-0.51,19.12-0.66
	c-0.02,5.34-0.04,10.68,0.05,16.02c7.46,0.33,14.93,0.18,22.4,0.13c0.75-5.25,0.15-10.58,0.94-15.83
	c12.21,0.24,24.43,0.51,36.65,0.8c24.8,1.22,49.69,2.14,74.3,5.66c-0.03,3.02-0.02,6.04-0.01,9.06c6.43,0.59,12.9,0.55,19.34,0.05
	c0.02-1.76,0.06-3.51,0.09-5.25c4.39,0.6,10,0.94,12.42,5.3c0.03,2.29-2.49,3.08-4.16,3.97c-7.31,2.86-15.18,3.89-22.89,5.16
	c-22.9,3.25-46.03,4.63-69.12,5.73c-36.65,1.69-73.36,1.48-110.04,0.9c-30.81-1.12-61.69-2.3-92.26-6.57
	c-7.94-1.34-16.11-2.25-23.58-5.42c-2.14-0.74-3.52-2.54-4.35-4.56c4.01-2.56,8.52-4.04,13.08-5.26c0.02,2.04,0.07,4.08,0.13,6.14
	c7.36,0.28,14.74,0.28,22.11,0c0.05-3.11,0.09-6.22,0.1-9.31c4.86-1.1,9.82-1.69,14.78-2.06c12.3-1.15,24.62-1.99,36.96-2.64
	c11.33-0.35,22.66-1.49,34.01-0.99c0.21,5.03,0.01,10.09,0.63,15.11c6.43,0.1,12.86,0.21,19.29-0.14
	C515.909,617.394,515.879,612.284,515.809,607.174z"/>
<g>
	<path fill="#FFF568" stroke="#FFF568" stroke-width="0.5" d="M1072.729,138.324c9.92-2.13,20.13-1.77,30.21-2.32
		c11.7-0.04,24.07,0.06,34.71,5.59c7.48,3.87,12.36,11.31,14.98,19.12c3.43,10.19,5.4,20.94,5.17,31.71
		c-0.2,7.04-0.99,14.43-4.96,20.45c-16.17,18.09-38.56,28.7-60.57,37.9c-6.33,2.45-12.4,5.64-18.98,7.36
		c2.36-3.76,6.45-5.79,9.37-9.03c4.68-5.19,8.67-11.06,11.38-17.53c-13.14,8.12-25.41,17.64-39.11,24.83
		c-10.87,5.83-22.13,10.88-33.58,15.43c-6.32,2.84-13.18,4.44-19.27,7.71c-2.44,4.05-0.29,9.07,0.27,13.42c0,1.6,1.33,3.9-0.43,4.96
		c-3.17-0.9-6.24-3.43-9.67-2.31c-4.61,1.31-7.75,6.03-7.41,10.78c0.23,8.17,4.35,15.89,9.86,21.77c3.27-1.05,6.93-2.45,10.27-0.76
		c2.75,0.94,3.54,4,4.6,6.39c3.18,8.45,7.82,16.36,13.67,23.24c3.7,4.53,8.66,7.78,12.53,12.16c-0.31,4.32,0.1,8.65,0.67,12.93
		c1.46,13.02,3.08,26.28,0.56,39.27c-3.89,22.13-9.07,45.44-24.3,62.8c-0.98,1.07-2.01,2.09-3.06,3.07
		c-2.4,2.01-4.91,3.88-7.46,5.68c-0.37,0.25-1.11,0.77-1.48,1.02c-1.95,1.14-3.95,2.17-5.98,3.13c-8.35,3.7-17.38,6.12-26.53,6.38
		c2.16-3.7,6.43-5.5,8.51-9.26c4.23-7.15,5.11-15.69,5.23-23.82c0.12-12.66-2.95-25.01-5.75-37.26c-3.73-18.2-6.64-37-3.81-55.54
		c1.57-9.33,5.12-18.52,11.4-25.71c4.22-3.12,9.06-5.23,13.56-7.9c-3.01-2.99-6.65-5.33-9.26-8.7c-4.7-5.97-7.75-13.01-10.6-20
		c-1-3.38-2.23-6.69-3.25-10.07c-1.3-5-2.23-10.08-3.16-15.16c-2.46-14.13-2.59-28.75,0.68-42.77c4.7-24.11,13.02-48.16,28.45-67.61
		c9.44-11.99,21.4-21.92,34.67-29.41C1046.549,143.804,1059.729,140.834,1072.729,138.324z"/>
	<path fill="#F0D0B4" stroke="#F0D0B4" stroke-width="0.5" d="M1092.269,250.774c22.01-9.2,44.4-19.81,60.57-37.9
		c4.22,8.56,7.49,17.53,11.36,26.24c3.34,7.35,4.81,15.33,6.96,23.07c1.9,6.75,2.85,14.03,7.12,19.83
		c4.18,6.21,9.3,13.27,7.44,21.21c-0.44,3.42-4.49,3.33-7,4.28c-0.2,5.75-0.39,11.52-1.44,17.2c-0.14-0.79-0.44-2.37-0.58-3.16
		c-9.34,0.86-18.65,1.98-27.95,3.08c3.84,6.32,8.82,11.84,13.01,17.93c1.87,2.79,4.02,5.45,6.94,7.23
		c-6.43,11.87-17.18,20.89-29.18,26.8c-6.81,2.94-13.98,5.02-21.25,6.46c-10.41,1.53-21.02,1.83-31.46,0.42
		c-10.5-1.24-20.74-3.94-30.77-7.19c-6.79-2.24-13.86-3.84-20.27-7.08c-3.87-4.38-8.83-7.63-12.53-12.16
		c-5.85-6.88-10.49-14.79-13.67-23.24c-1.06-2.39-1.85-5.45-4.6-6.39c-3.34-1.69-7-0.29-10.27,0.76c-5.51-5.88-9.63-13.6-9.86-21.77
		c-0.34-4.75,2.8-9.47,7.41-10.78c3.43-1.12,6.5,1.41,9.67,2.31c1.76-1.06,0.43-3.36,0.43-4.96c-0.56-4.35-2.71-9.37-0.27-13.42
		c6.09-3.27,12.95-4.87,19.27-7.71c11.45-4.55,22.71-9.6,33.58-15.43c13.7-7.19,25.97-16.71,39.11-24.83
		c-2.71,6.47-6.7,12.34-11.38,17.53c-2.92,3.24-7.01,5.27-9.37,9.03C1079.869,256.414,1085.939,253.224,1092.269,250.774
		 M1150.359,251.754c-4.3,2.26-4.37,9.05-0.13,11.41c4.12,2.79,10.38-0.8,9.99-5.78
		C1160.419,252.504,1154.449,249.184,1150.359,251.754 M1131.229,255.614c-4.61,2.1-4.84,9.38-0.31,11.7
		c4.2,2.73,10.18-1.02,9.89-5.92C1140.829,256.724,1135.349,253.444,1131.229,255.614 M987.659,305.074
		c1.78-0.16,3.56-0.34,5.36-0.51c-0.61,1.64-1.22,3.28-1.85,4.92c1.61,4.8,4.5,9.24,8.73,12.14c0.36-4.7,0.37-9.54-1.1-14.06
		c-0.94-2.91-3.73-5.3-6.87-5.24C990.109,302.204,987.699,302.894,987.659,305.074z"/>
	<path fill="#363636" stroke="#363636" stroke-width="0.5" d="M1150.359,251.754c4.09-2.57,10.06,0.75,9.86,5.63
		c0.39,4.98-5.87,8.57-9.99,5.78C1145.989,260.804,1146.059,254.014,1150.359,251.754z"/>
	<path fill="#363636" stroke="#363636" stroke-width="0.5" d="M1131.229,255.614c4.12-2.17,9.6,1.11,9.58,5.78
		c0.29,4.9-5.69,8.65-9.89,5.92C1126.389,264.994,1126.619,257.714,1131.229,255.614z"/>
	<path fill="#F0D0B4" stroke="#F0D0B4" stroke-width="0.5" d="M956.139,295.724c2.41-5.71,9.41-7.2,14.92-5.67
		c0.93,5.08,1.86,10.16,3.16,15.16c-5.1,0.81-10.26,0.98-15.4,1.2C956.429,303.454,954.339,299.524,956.139,295.724z"/>
	<path fill="#D6A77D" stroke="#D6A77D" stroke-width="0.5" d="M987.659,305.074c0.04-2.18,2.45-2.87,4.27-2.75
		c3.14-0.06,5.93,2.33,6.87,5.24c1.47,4.52,1.46,9.36,1.1,14.06c-4.23-2.9-7.12-7.34-8.73-12.14c0.63-1.64,1.24-3.28,1.85-4.92
		C991.219,304.734,989.439,304.914,987.659,305.074z"/>
	<path fill="#FFFFFF" stroke="#FFFFFF" stroke-width="0.5" d="M958.819,306.414c5.14-0.22,10.3-0.39,15.4-1.2
		c1.02,3.38,2.25,6.69,3.25,10.07c-0.13,12.41,1.4,25.11,6.3,36.6c-6.28,7.19-9.83,16.38-11.4,25.71
		c-3.42-5.63-6.74-11.36-9.21-17.47c-7.08-16.87-8.67-35.43-7.87-53.54C956.449,306.514,957.629,306.464,958.819,306.414z"/>
	<path fill="#252525" stroke="#252525" stroke-width="0.5" d="M1317.629,313.164c1.29-2.34,2.07-5.86,5.05-6.52
		c6.68,1.23,13.49,0.58,20.24,0.69c13.66,0.05,27.33-0.07,41,0.06c2.62-0.04,5.29,0.07,7.89-0.53c2.49,1.18,4.33,3.5,5.87,5.75
		c0.63,4.56,0.15,9.19,0.27,13.78c0.06,26.01-0.14,52.02,0.1,78.03c-0.18,4.33,1.55,9.9-1.88,13.29c-3.63,0.26-7.26-0.23-10.88-0.02
		c0.36,5.25,1.01,10.47,1.62,15.7c0.45,4.38,0.97,8.75,1.37,13.14c3.15,0.18,6.31,0.26,9.48,0.25c0.12,2.24,0.25,4.48,0.45,6.73
		c-11.42-0.54-22.87-0.1-34.29-0.24c-8.5,0.1-17.01-0.22-25.5,0.19c-0.2-2.39,0.45-4.69,1.71-6.71c9.65-0.08,19.31,0.18,28.97-0.09
		c0.1-4.43,0.1-8.85,0.07-13.27c0-5.08,0.05-10.17-0.07-15.24c-15.58,0.06-31.24-0.81-46.76,0.71c-3.33-0.21-3.75-4.03-4.6-6.49
		c1.08,0.64,2.21,1.26,3.34,1.89c0.03-15.31-1.18-30.57-1.24-45.87C1318.849,349.994,1319.159,331.534,1317.629,313.164z"/>
	<path fill="#201007" stroke="#201007" stroke-width="0.5" d="M1322.679,306.644c4.7-0.83,9.49-0.44,14.24-0.49
		c16.32-0.01,32.65,0.05,48.98-0.04c1.96,0.04,4.02-0.03,5.91,0.75c-2.6,0.6-5.27,0.49-7.89,0.53c-13.67-0.13-27.34-0.01-41-0.06
		C1336.169,307.224,1329.359,307.874,1322.679,306.644z"/>
	<path fill="#F0D0B4" stroke="#F0D0B4" stroke-width="0.5" d="M1196.299,317.824c3.81-8.07,17.23-7.89,20.85,0.25
		c1.6,3,0.03,6.27-1.04,9.15c-6.11,0.15-12.23,0.17-18.33,0.49C1196.109,324.734,1194.469,321.124,1196.299,317.824z"/>
	<path fill="#464545" stroke="#464545" stroke-width="0.5" d="M1314.839,322.334c-0.23-3.33,1.37-6.29,2.79-9.17
		c1.53,18.37,1.22,36.83,2.21,55.23c0.06,15.3,1.27,30.56,1.24,45.87c-1.13-0.63-2.26-1.25-3.34-1.89c-1.28-2.15-3.06-4.24-2.86-6.9
		C1314.859,377.764,1314.929,350.044,1314.839,322.334z"/>
	<path fill="#F06EAA" stroke="#F06EAA" stroke-width="0.5" d="M1148.749,324.624c9.3-1.1,18.61-2.22,27.95-3.08
		c0.14,0.79,0.44,2.37,0.58,3.16c-1.21,8.82-4.25,17.32-8.58,25.08c-2.92-1.78-5.07-4.44-6.94-7.23
		C1157.569,336.464,1152.589,330.944,1148.749,324.624z"/>
	<path fill="#FFFFFF" stroke="#FFFFFF" stroke-width="0.5" d="M1195.529,328.034c0.56-0.08,1.69-0.24,2.25-0.32
		c6.1-0.32,12.22-0.34,18.33-0.49c0.38,0.07,1.14,0.22,1.52,0.29c-11.12,30.57-31.38,57.65-56.97,77.64
		c-0.81,9.06-0.12,18.16-0.38,27.24c-0.1,17-0.02,34-0.02,51c0.12,2.03-0.38,4.27-2.64,4.83c-1.12-1.13-2.15-2.31-3.15-3.5
		c-4.78-0.2-9.55-0.05-14.31,0.05c-22.74-0.6-45.49,0.31-68.23-0.22c-19.74-0.34-39.49,0.17-59.23-0.36
		c15.23-17.36,20.41-40.67,24.3-62.8c2.52-12.99,0.9-26.25-0.56-39.27c19.85,4.87,39.49,10.59,59.34,15.44
		c-2.86-4.78-5.69-9.6-8.97-14.1c10.44,1.41,21.05,1.11,31.46-0.42c-1.87,3.83-3.9,7.59-5.63,11.5c12.19-3.66,23.96-8.61,36.18-12.2
		c8.78-0.52,16.81-4.96,22.82-11.24C1183.259,359.154,1190.049,343.534,1195.529,328.034z"/>
	<path fill="#EC018C" stroke="#EC018C" stroke-width="0.5" d="M1035.769,369.194c6.41,3.24,13.48,4.84,20.27,7.08
		c10.03,3.25,20.27,5.95,30.77,7.19c3.28,4.5,6.11,9.32,8.97,14.1c-19.85-4.85-39.49-10.57-59.34-15.44
		C1035.869,377.844,1035.459,373.514,1035.769,369.194z"/>
	<path fill="#EC018B" stroke="#EC018B" stroke-width="0.5" d="M1118.269,383.044c7.27-1.44,14.44-3.52,21.25-6.46
		c4.29,1.48,8.75,2.4,13.06,3.83c-1.26,0.66-2.5,1.32-3.76,1.93c-12.22,3.59-23.99,8.54-36.18,12.2
		C1114.369,390.634,1116.399,386.874,1118.269,383.044z"/>
	<path fill="#E1E1E1" stroke="#E1E1E1" stroke-width="0.5" d="M1221.999,453.354c14.3-0.27,28.61-0.02,42.92-0.1
		c24.5,0.14,49.01-0.3,73.5,0.21c2.8,0.5,5.62,1.01,8.5,0.98c14.33-0.14,28.67-0.13,43,0c2.78,0,5.54-0.46,8.29-0.93
		c13.21-0.62,26.47-0.09,39.71-0.27c28.29,0.09,56.59-0.16,84.88,0.12c0.05,18.05-0.01,36.11,0.02,54.16
		c-6.34,0.21-12.67,0.18-19,0.06c-37.23-0.22-74.47,0.2-111.69-0.21v0.83c-1.05,10.36-0.24,20.79-0.48,31.19
		c-0.01,22.71,0,45.42,0,68.13c-0.01,4.97-0.02,9.95-0.01,14.92c-7.48,0.45-14.98,0.42-22.46,0.02c-0.02-5.1,0-10.2,0.02-15.3
		c-0.12-33.21,0.22-66.42-0.16-99.62c-6.38-0.07-12.76-0.04-19.14,0.05c-6.33,0.1-12.66,0.1-18.98-0.01
		c-28.88-0.04-57.77-0.15-86.64,0.05c0.11,38.34,0.04,76.68,0.05,115.02c-7.45,0.07-14.89,0.21-22.32-0.12
		c-0.05-2.05-0.08-4.1-0.08-6.14C1222.019,562.054,1221.879,507.704,1221.999,453.354z"/>
	<path fill="#F9F9F8" stroke="#F9F9F8" stroke-width="0.5" d="M1338.419,453.464c8.49-0.41,17-0.09,25.5-0.19
		c11.42,0.14,22.87-0.3,34.29,0.24c-2.75,0.47-5.51,0.93-8.29,0.93c-14.33-0.13-28.67-0.14-43,0
		C1344.039,454.474,1341.219,453.964,1338.419,453.464z"/>
	<path fill="#F1D9B6" stroke="#F1D9B6" stroke-width="0.5" d="M1009.639,487.264c1.05-0.98,2.08-2,3.06-3.07
		c19.74,0.53,39.49,0.02,59.23,0.36c22.74,0.53,45.49-0.38,68.23,0.22c-27.41,0.72-54.84,1.15-82.26,1.75
		C1041.809,486.704,1025.719,487.564,1009.639,487.264z"/>
	<path fill="#EC008C" stroke="#EC008C" stroke-width="0.5" d="M1140.159,484.774c4.76-0.1,9.53-0.25,14.31-0.05
		c1,1.19,2.03,2.37,3.15,3.5c4.42,4.73,9.64,8.73,13.45,14.02c2.84,3.84,4.95,8.23,8.35,11.66c3.73,3.96,8.41,6.97,11.78,11.28
		c0.69,0.83,1.71,2.96,0.14,3.45c-3.97,1.47-8.39,0.64-12.51,0.47c-5.97-0.69-11.83-1.98-17.73-3.07
		c-7.64-1.24-15.45-0.6-23.07,0.49c-4.7,0.65-9.38,2.69-12.16,6.69c-2.01,3.19-5.01,6.03-9.12,5.13c-3.95-1.21-7.83-2.6-11.63-4.17
		c-0.36-0.17-1.08-0.5-1.44-0.66l-0.72-0.33c-3.31-1.65-6.55-3.43-9.72-5.31c-4-2.43-8.01-5.15-12.69-5.98
		c-3.85-0.74-7.77-0.13-11.54,0.63c-4.72,1.06-9.4,2.71-13.25,5.7c-2.34,1.64-4.41,3.81-7.14,4.8c-3.1,0.45-5.92-1.39-8.51-2.8
		c-5.39-3.32-10.81-6.57-16.3-9.7c-3.88-2.25-7.66-4.65-11.52-6.92c-2.29-1.93-4.86-3.96-5.62-7.01c-1.28-4.62-2.42-9.31-4.49-13.65
		c2.55-1.8,5.06-3.67,7.46-5.68c16.08,0.3,32.17-0.56,48.26-0.74C1085.319,485.924,1112.749,485.494,1140.159,484.774z"/>
	<path fill="#264066" stroke="#264066" stroke-width="0.5" d="M1000.699,493.964c0.37-0.25,1.11-0.77,1.48-1.02
		c2.07,4.34,3.21,9.03,4.49,13.65c0.76,3.05,3.33,5.08,5.62,7.01c-3.82,0.05-7.63,0.22-11.44,0.06
		C1000.769,507.094,1000.619,500.524,1000.699,493.964z"/>
	<path fill="#27354E" stroke="#27354E" stroke-width="0.5" d="M994.719,497.094c2.03-0.96,4.03-1.99,5.98-3.13
		c-0.08,6.56,0.07,13.13,0.15,19.7c-1.96-0.07-3.9-0.12-5.84-0.03C994.809,508.124,994.889,502.604,994.719,497.094z"/>
	<path fill="#928F8E" stroke="#928F8E" stroke-width="0.5" d="M1330.919,507.584c6.32,0.11,12.65,0.11,18.98,0.01
		c0.01,0.74,0.01,2.23,0.02,2.97c-6.34,0.24-12.69,0.24-19.02,0C1330.899,509.824,1330.909,508.334,1330.919,507.584z"/>
	<path fill="#928F8E" stroke="#928F8E" stroke-width="0.5" d="M1503.819,507.584c6.33,0.12,12.66,0.15,19-0.06c0,0.75,0,2.26,0,3.01
		c-6.37,0.29-12.74,0.26-19.11,0.03C1503.739,509.824,1503.789,508.334,1503.819,507.584z"/>
	<path fill="#D7D7D7" stroke="#D7D7D7" stroke-width="0.5" d="M1330.899,510.564c6.33,0.24,12.68,0.24,19.02,0
		c0.08,31.99,0,63.99,0.04,95.98c0.04,5.33,0.06,10.66-0.07,15.99c-6.32,0.3-12.65,0.31-18.96,0c-0.13-5.06-0.14-10.12-0.08-15.17
		C1330.909,575.094,1330.809,542.834,1330.899,510.564z"/>
	<path fill="#D7D7D7" stroke="#D7D7D7" stroke-width="0.5" d="M1503.709,510.564c6.37,0.23,12.74,0.26,19.11-0.03
		c0.14,35.53-0.07,71.06,0.11,106.59c-0.05,1.79-0.11,3.6-0.14,5.41c-6.41,0.3-12.81,0.24-19.21,0.11
		C1503.699,585.284,1503.459,547.924,1503.709,510.564z"/>
	<path fill="#586D90" stroke="#586D90" stroke-width="0.5" d="M995.009,513.634c1.94-0.09,3.88-0.04,5.84,0.03
		c3.81,0.16,7.62-0.01,11.44-0.06c3.86,2.27,7.64,4.67,11.52,6.92c-0.01,4.21,0,8.43,0.04,12.65c-4.33-0.02-8.65,0.02-12.97,0.04
		c-4.33-0.02-8.65,0.04-12.96,0.04c-2.03-0.03-4.06-0.06-6.06-0.09c-0.44-6.22-0.48-12.45,0-18.66
		C992.899,514.184,993.949,513.894,995.009,513.634z"/>
	<path fill="#27364F" stroke="#27364F" stroke-width="0.5" d="M1023.809,520.524c5.49,3.13,10.91,6.38,16.3,9.7
		c2.59,1.41,5.41,3.25,8.51,2.8c2.73-0.99,4.8-3.16,7.14-4.8c3.85-2.99,8.53-4.64,13.25-5.7c2.31,3.38,4.56,6.84,6.33,10.56
		c-6.53,0.15-13.07-0.04-19.6,0.18c-0.29,22.64-0.03,45.28-0.12,67.93c0.02,5.01,0.02,10.02,0.02,15.04
		c-4.24,0.21-8.48,0.23-12.72,0.09c-0.1-4.99-0.1-9.99-0.06-14.98c-0.03-22.69,0.05-45.38-0.03-68.07
		c-6.33-0.23-12.66-0.08-18.98-0.1C1023.809,528.954,1023.799,524.734,1023.809,520.524z"/>
	<path fill="#F0D0B4" stroke="#F0D0B4" stroke-width="0.5" d="M1069.009,522.524c3.77-0.76,7.69-1.37,11.54-0.63
		c4.68,0.83,8.69,3.55,12.69,5.98c0.3,1.74,0.64,3.49,1.01,5.24c1.79,8.54,3.86,17.02,5.27,25.64c0.9,6.16,0.48,12.41,0.21,18.61
		c-4.67,0.04-9.34,0.03-13.99-0.27c0.78-3.32,0.07-6.71-0.44-10c-2.04-11.65-4.86-23.29-9.96-34.01
		C1073.569,529.364,1071.319,525.904,1069.009,522.524z"/>
	<path fill="#27364F" stroke="#27364F" stroke-width="0.5" d="M1138.029,526.524c7.62-1.09,15.43-1.73,23.07-0.49
		c0.9,2.38,1.89,4.73,2.77,7.14c-1.98,0.02-3.94,0.06-5.89,0.11c-0.06,23.05-0.03,46.1,0,69.16c0.03,4.62-0.01,9.25-0.09,13.88
		c-4.24,0.13-8.48,0.11-12.7-0.08c-0.02-4.69-0.03-9.38,0.01-14.07c-0.08-22.97,0.17-45.94-0.12-68.91
		c-6.4-0.21-12.81-0.13-19.21-0.05C1128.649,529.214,1133.329,527.174,1138.029,526.524z"/>
	<path fill="#F0D0B4" stroke="#F0D0B4" stroke-width="0.5" d="M1161.099,526.034c5.9,1.09,11.76,2.38,17.73,3.07
		c2.01,5.72,4.9,11.13,6.36,17.04c1.16,4.68,0.14,9.51,0.51,14.25c0.23,5.84,2.75,11.24,3.52,17c-6.31-0.09-12.63-0.14-18.93,0.22
		c-0.78-14.95-1.34-30.2-6.42-44.44C1162.989,530.764,1161.999,528.414,1161.099,526.034z"/>
	<path fill="#1F3042" stroke="#1F3042" stroke-width="0.5" d="M1093.239,527.874c3.17,1.88,6.41,3.66,9.72,5.31
		c-2.91-0.12-5.81-0.07-8.71-0.07C1093.879,531.364,1093.539,529.614,1093.239,527.874z"/>
	<path fill="#27364F" stroke="#27364F" stroke-width="0.5" d="M997.919,533.254c4.31,0,8.63-0.06,12.96-0.04
		c-0.1,23.41-0.09,46.82,0,70.23c-0.02,0.78-0.07,2.32-0.09,3.09c-4.4,0.34-8.88,0.59-13.14-0.73
		C998.299,581.634,997.759,557.434,997.919,533.254z"/>
	<path fill="#252533" stroke="#252533" stroke-width="0.5" d="M1103.679,533.514c0.36,0.16,1.08,0.49,1.44,0.66
		c-0.53,10.73-0.1,21.47-0.32,32.22c0.01,3.86-0.43,8.01,1.63,11.49c-0.66-0.11-1.98-0.33-2.64-0.44
		C1103.499,562.794,1103.729,548.154,1103.679,533.514z"/>
	<path fill="#27364F" stroke="#27364F" stroke-width="0.5" d="M1105.119,534.174c3.8,1.57,7.68,2.96,11.63,4.17
		c-0.62,9.67-0.15,19.37-0.29,29.05c0.14,5.33-0.51,10.73,0.56,16c-2.38-3.6-6.57-4.85-10.59-5.51c-2.06-3.48-1.62-7.63-1.63-11.49
		C1105.019,555.644,1104.589,544.904,1105.119,534.174z"/>
	<path fill="#FD00FE" stroke="#FD00FE" stroke-width="0.5" d="M1085.239,583.994c-0.16-2.32-0.07-4.65,0.5-6.9
		c4.65,0.3,9.32,0.31,13.99,0.27c1.34-0.02,2.69,0.01,4.06,0.08c0.66,0.11,1.98,0.33,2.64,0.44c4.02,0.66,8.21,1.91,10.59,5.51
		l0.23,0.88C1106.579,584.294,1095.879,584.754,1085.239,583.994z"/>
	<path fill="#FD00FF" stroke="#FD00FF" stroke-width="0.5" d="M1170.289,577.614c6.3-0.36,12.62-0.31,18.93-0.22
		c5.06,0.74,10.86,1.73,13.43,6.78c-7.57,0.43-15.16,0.08-22.73,0.22c-3.2,0.02-6.47,0.2-9.53-0.85
		C1170.469,581.554,1170.399,579.584,1170.289,577.614z"/>
	<path fill="#000001" stroke="#000001" stroke-width="0.5" d="M1083.759,583.814c0.37,0.05,1.11,0.13,1.48,0.18
		c10.64,0.76,21.34,0.3,32.01,0.28c0.15,1.05-0.06,2.11-0.27,3.16c-1.73,7.27-0.25,14.83-0.82,22.22c-4.13,0.14-8.25,0.14-12.36,0
		c-0.15-7.57,0.05-15.15-0.12-22.72l0.01-1.16c-2.74,0.44-5.74,0.6-7.98,2.42c-2.43,1.69-2.57,4.9-3.36,7.49
		C1090.409,591.094,1087.689,586.934,1083.759,583.814 M1104.669,586.114c-0.28,7.5-0.3,15.02-0.01,22.53
		c3.5,0.29,7.02,0.29,10.53,0.01c0.26-7.39,0.36-14.8-0.06-22.18C1111.649,586.094,1108.149,585.924,1104.669,586.114z"/>
	<path fill="#000001" stroke="#000001" stroke-width="0.5" d="M1170.289,585.174c0.02-0.41,0.07-1.23,0.1-1.63
		c3.06,1.05,6.33,0.87,9.53,0.85c7.57-0.14,15.16,0.21,22.73-0.22c0.29,0.26,0.88,0.78,1.18,1.04c-0.35,0.59-0.66,1.2-0.96,1.83
		c-6.81-0.98-14.26-2.65-20.74,0.51c-3.2,1.4-3.51,5.17-4.18,8.14C1175.729,591.914,1174.249,587.524,1170.289,585.174z"/>
	<path fill="#27364F" stroke="#27364F" stroke-width="0.5" d="M1104.669,586.114c3.48-0.19,6.98-0.02,10.46,0.36
		c0.42,7.38,0.32,14.79,0.06,22.18c-3.51,0.28-7.03,0.28-10.53-0.01C1104.369,601.134,1104.389,593.614,1104.669,586.114z"/>
	<path fill="#49A2E2" stroke="#49A2E2" stroke-width="0.5" d="M1102.959,600.274c0.22-4.45,0.52-8.9,0.72-13.34
		c0.17,7.57-0.03,15.15,0.12,22.72c4.11,0.14,8.23,0.14,12.36,0c0.57-7.39-0.91-14.95,0.82-22.22c-0.5,4.44-0.29,8.91-0.06,13.36
		c9.43,0.13,18.91,0.16,28.28,1.38c-0.04,4.69-0.03,9.38-0.01,14.07c4.22,0.19,8.46,0.21,12.7,0.08c0.08-4.63,0.12-9.26,0.09-13.88
		c11.29,1.27,22.66,1.93,33.85,4.02c6.09,1.22,12.67,1.93,17.66,6.02c-1.11,1.73-2.52,3.32-4.54,3.97
		c-7.36,2.88-15.33,3.61-23.08,4.81c-24.87,3.05-49.95,4.14-74.99,4.42c-11.96,0.56-23.95,0.56-35.92,0
		c-27.95-0.4-55.99-1.54-83.65-5.78c-6.28-1.36-13.39-1.82-18.24-6.55c2.55-4.09,7.63-4.75,11.91-5.83
		c5.47-1.06,11.06-2.64,16.67-1.72c4.26,1.32,8.74,1.07,13.14,0.73c0.02-0.77,0.07-2.31,0.09-3.09c10.64-0.94,21.3-1.79,31.98-2.1
		c-0.04,4.99-0.04,9.99,0.06,14.98c4.24,0.14,8.48,0.12,12.72-0.09c0-5.02,0-10.03-0.02-15.04
		C1071.339,599.644,1087.189,600.814,1102.959,600.274z"/>
	<path fill="#49A2E2" stroke="#49A2E2" stroke-width="0.5" d="M1349.959,606.544c6.41,0.19,12.85-0.22,19.24,0.62
		c-0.02,5.1-0.04,10.2-0.02,15.3c7.48,0.4,14.98,0.43,22.46-0.02c-0.01-4.97,0-9.95,0.01-14.92c0.34-0.26,1.04-0.8,1.38-1.06
		c10.94,1.08,21.94,0.66,32.91,1.07c17.02,0.68,34.03,1.52,51.01,2.89c8.61,0.93,17.38,1.03,25.86,3c0.15,3.07,0.38,6.15,0.77,9.22
		c6.4,0.13,12.8,0.19,19.21-0.11c0.03-1.81,0.09-3.62,0.14-5.41c4,0.6,8.41,1.04,11.59,3.82c1.73,1.98-0.37,4.11-2.23,4.89
		c-5.68,2.68-11.96,3.7-18.09,4.82c-23.55,3.87-47.42,5.23-71.23,6.54c-47.34,1.97-94.77,1.97-142.11-0.05
		c-24.63-1.39-49.36-2.76-73.69-7.11c-6.38-1.41-13.37-2.27-18.43-6.82c2.68-4.72,8.54-5.22,13.19-6.82c0,2.04,0.03,4.09,0.08,6.14
		c7.43,0.33,14.87,0.19,22.32,0.12c0.38-3.26,0.8-6.5,1.03-9.76c4.78-0.88,9.62-1.43,14.48-1.79c23.62-1.99,47.3-3.47,71.01-3.74
		c-0.06,5.05-0.05,10.11,0.08,15.17c6.31,0.31,12.64,0.3,18.96,0C1350.019,617.204,1349.999,611.874,1349.959,606.544z"/>
</g>
</svg>
