<svg id="796414e6-4a38-4c07-8d4d-68e698717e3d" data-name="Layer 1" xmlns="http://www.w3.org/2000/svg" xmlns:xlink="http://www.w3.org/1999/xlink" viewBox="0 0 790.02 389.69"><defs><style>.\33 8449ccf-c91a-4563-8b55-edb16e31ea19{fill:none;}.dddd47aa-a840-4cde-8edf-a10587bb33be{clip-path:url(#f3f0e6ad-ee96-48c4-aa59-1f09eb2e482f);}.f90059dd-fe94-4e20-af45-012306bd4c2c{fill:url(#e883f545-ba2d-49cc-9171-5e7f316cd6ca);}.\30 c15fd44-76e5-4aa9-9aec-fbde26e7aa94{clip-path:url(#2bfb028e-92b3-4a01-8d18-aff749990ace);}.\36 8eff99a-3af0-4652-b212-3207567e7d0b{fill:url(#1630e134-1a17-48c8-8fca-667bc68ed2e3);}.\36 f50c660-04f3-4e0b-be09-e33206683a4a{clip-path:url(#a5818214-73a6-4e7e-922a-80d88c47cd4e);}.\31 e35f369-bddf-4a6c-bd8c-c3518a7ef22d{fill:#006daa;}.eedfbb34-ed80-49c9-98ca-4fcd68fbd2d7{fill:#3fac49;}.\32 ff0f833-c7f9-4226-851d-55c757d669e4{fill:#0092d0;}.a641f222-a584-4c0f-9157-0e3c5f3646c0{clip-path:url(#54c271f0-3f46-4432-b885-1328a541c7c1);}.f7099d0b-abd7-44bd-a182-b5b24e673cd8{fill:url(#d13301e9-7558-490e-9a87-0515c35c4d1e);}.a821a081-ee71-471d-a088-9c0d2fbb03b8{clip-path:url(#121a09d0-cb08-4114-a5e4-99d560d7954e);}.\35 cb57434-5260-4936-994a-d062a71d72c7{fill:url(#223f4a79-a740-400c-a44d-79c6ecf1065e);}</style><clipPath id="f3f0e6ad-ee96-48c4-aa59-1f09eb2e482f" transform="translate(3.41 4.96)"><path class="38449ccf-c91a-4563-8b55-edb16e31ea19" d="M613,2.31c-8.86,0-12.71.39-16.94,2.7-5,2.89-8.47,8.47-8.47,15.79s3.46,12.9,8.47,15.78c4.23,2.32,8.08,2.7,16.94,2.7h51.61V249.73c0,10.2.19,13.48,3.08,18.87,3.07,5.58,9.43,9.44,17.71,9.44s14.64-3.86,17.71-9.44c2.89-5.39,3.08-8.67,3.08-18.87V39.28h51.6c8.86,0,12.72-.38,16.95-2.7,5-2.88,8.47-8.47,8.47-15.78S779.79,7.9,774.78,5c-4.23-2.31-8.09-2.7-16.95-2.7Z"/></clipPath><linearGradient id="e883f545-ba2d-49cc-9171-5e7f316cd6ca" x1="-172.63" y1="1694.05" x2="-166.97" y2="1694.05" gradientTransform="matrix(0, 143.55, 143.55, 0, -242503.08, 24226.79)" gradientUnits="userSpaceOnUse"><stop offset="0" stop-color="#006da9"/><stop offset="0.14" stop-color="#006da9"/><stop offset="0.31" stop-color="#0086c3"/><stop offset="0.41" stop-color="#0091ce"/><stop offset="0.71" stop-color="#41ac49"/><stop offset="1" stop-color="#9ec23b"/><stop offset="1" stop-color="#9ec23b"/></linearGradient><clipPath id="2bfb028e-92b3-4a01-8d18-aff749990ace" transform="translate(3.41 4.96)"><path class="38449ccf-c91a-4563-8b55-edb16e31ea19" d="M256.07,39.28h60.08c29.26,0,48.52,16.75,48.52,46.21,0,28.89-19.26,45.83-48.52,45.83H256.07Zm-16.17-37c-6.16,0-13.47,0-19.44,6s-6,13.29-6,19.45v222c0,10.2.2,13.48,3.09,18.87,3.08,5.58,9.43,9.44,17.71,9.44s14.63-3.86,17.71-9.44c2.9-5.39,3.08-8.67,3.08-18.87V168.28h62.39c53.52,0,87.8-35,87.8-82.79S372,2.31,318.46,2.31ZM97,0C40.05,0,5.39,32.35,5.39,80.1c0,22.33,6.55,40.05,20.22,52.57,12.9,11.93,29.65,18.86,51.79,22.14l32.54,4.62c13.67,1.92,22.91,5.39,29.85,11.55,7.7,6.55,10.78,16.17,10.78,28.5,0,27-20.41,42.36-56.61,42.36-23.68,0-39.85-4.82-58.34-17.52-7.51-5.2-12.32-6.94-17.71-6.94a16.75,16.75,0,0,0-12.14,5A20.28,20.28,0,0,0,0,236.06c0,10,5.2,15.79,19.45,24.26,20.21,12.13,40.82,18.48,73.74,18.48,57.77,0,98.59-30,98.59-80.48,0-23.87-7.71-42.74-22.34-56.22-11.94-10.78-25.8-16.56-50.84-20.41l-32.72-5c-15-2.3-23.11-6.16-30-12.32-7.32-6.16-10-15.4-10-25.41,0-25,17.32-42.56,49.67-42.56,19.25,0,32.16,3.47,48.52,13.48,5.59,3.47,12.33,6,16.75,6a15.81,15.81,0,0,0,12.71-6,19.4,19.4,0,0,0,4.81-12.7c0-8.86-7.12-16-16.75-21C138.82,4.24,123,0,97,0Z"/></clipPath><linearGradient id="1630e134-1a17-48c8-8fca-667bc68ed2e3" x1="-172.63" y1="1694.02" x2="-166.97" y2="1694.02" gradientTransform="matrix(0, 143.55, 143.55, 0, -242980.27, 24708.31)" xlink:href="#e883f545-ba2d-49cc-9171-5e7f316cd6ca"/><clipPath id="a5818214-73a6-4e7e-922a-80d88c47cd4e" transform="translate(3.41 4.96)"><rect class="38449ccf-c91a-4563-8b55-edb16e31ea19" width="783.25" height="384.72"/></clipPath><clipPath id="54c271f0-3f46-4432-b885-1328a541c7c1" transform="translate(3.41 4.96)"><path class="38449ccf-c91a-4563-8b55-edb16e31ea19" d="M466.63,9.31c-29,20.33-17,50.89-17,50.89,10.59,23.92,37.2,27.36,37.2,27.36,27.05,4.75,28.58,25,28.58,25,3.29,28.13-21.36,33.82-21.36,33.82C475.93,152,457.74,143,457.74,143c-7.27-3.38-12.45-2.42-12.45-2.42-19,2.4-20,19.83-20,19.83a24.41,24.41,0,0,0,8.31,19.83c19.68,13.57,33.66-6.61,33.66-6.61,21.37-32.28,51.88-12.91,51.88-12.91a31.72,31.72,0,0,0,16.22,8.15c13.53,5,21.06,16.9,21.06,16.9,13.37,21.83,3.38,39.85,3.38,39.85A34.56,34.56,0,0,0,556.94,243c2.82,31.35,31.62,35,31.62,35,38.26,4.7,43.35-31.67,43.35-31.67,4.36-37.28-32.06-42.89-32.06-42.89-45.73-12.76-34.51-53.8-34.51-53.8,6.16-27.67-18.44-34-18.44-34C532.14,111.42,525.22,96,525.22,96c-6.34-17.55,1.62-30.9,1.62-30.9,14.37-27.67-6.07-48.57-6.07-48.57C510.33,5.86,499.39,2.7,490.09,2.7a46.61,46.61,0,0,0-23.46,6.61"/></clipPath><linearGradient id="d13301e9-7558-490e-9a87-0515c35c4d1e" x1="-172.63" y1="1694.02" x2="-166.97" y2="1694.02" gradientTransform="matrix(0, 143.55, 143.55, 0, -242653.68, 24384.31)" xlink:href="#e883f545-ba2d-49cc-9171-5e7f316cd6ca"/><clipPath id="121a09d0-cb08-4114-a5e4-99d560d7954e" transform="translate(3.41 4.96)"><path class="38449ccf-c91a-4563-8b55-edb16e31ea19" d="M349.53,235.14a42.58,42.58,0,1,0,42.58-42.58,42.59,42.59,0,0,0-42.58,42.58"/></clipPath><linearGradient id="223f4a79-a740-400c-a44d-79c6ecf1065e" x1="-172.63" y1="1693.37" x2="-166.97" y2="1693.37" gradientTransform="matrix(0, 143.55, 143.55, 0, -242697.87, 24613.9)" xlink:href="#e883f545-ba2d-49cc-9171-5e7f316cd6ca"/></defs><title>SPAT</title><g class="dddd47aa-a840-4cde-8edf-a10587bb33be"><rect class="f90059dd-fe94-4e20-af45-012306bd4c2c" x="546.39" y="40.69" width="278.1" height="198.98" transform="translate(540.31 828.81) rotate(-89.3)"/></g><g class="0c15fd44-76e5-4aa9-9aec-fbde26e7aa94"><rect class="68eff99a-3af0-4652-b212-3207567e7d0b" x="61.26" y="-65.42" width="283.74" height="409.64" transform="translate(64.66 345.78) rotate(-89.3)"/></g><g class="6f50c660-04f3-4e0b-be09-e33206683a4a"><path class="1e35f369-bddf-4a6c-bd8c-c3518a7ef22d" d="M719.71,384.42H736a4.25,4.25,0,0,0,2.22-.35,2.49,2.49,0,0,0,0-4.14,4.25,4.25,0,0,0-2.22-.35H721.83V352a4.37,4.37,0,0,0-.4-2.47,2.8,2.8,0,0,0-4.64,0,4.36,4.36,0,0,0-.41,2.47v29.07a2.85,2.85,0,0,0,3.33,3.33m-32.93-6.8c-1.79-1.89-2.12-4-2.12-11.15s.33-9.28,2.12-11.17a7.11,7.11,0,0,1,5.35-2.25,7.19,7.19,0,0,1,5.35,2.25c1.76,1.89,2.12,4.06,2.12,11.17s-.36,9.26-2.12,11.15a7.24,7.24,0,0,1-5.35,2.27,7.16,7.16,0,0,1-5.35-2.27m-4,3.45a13.66,13.66,0,0,0,18.59,0c3.48-3.48,3.62-7.06,3.62-14.6s-.14-11.12-3.62-14.6a13.66,13.66,0,0,0-18.59,0c-3.47,3.48-3.6,7.06-3.6,14.6s.13,11.12,3.6,14.6m-31.94-3.45c-1.79-1.89-2.12-4-2.12-11.15s.33-9.28,2.12-11.17a7.09,7.09,0,0,1,5.35-2.25,7.16,7.16,0,0,1,5.34,2.25c1.77,1.89,2.12,4.06,2.12,11.17s-.35,9.26-2.12,11.15a7.22,7.22,0,0,1-5.34,2.27,7.14,7.14,0,0,1-5.35-2.27m-4,3.45a13.66,13.66,0,0,0,18.59,0c3.47-3.48,3.63-7.06,3.63-14.6s-.16-11.12-3.63-14.6a13.66,13.66,0,0,0-18.59,0c-3.48,3.48-3.6,7.06-3.6,14.6s.12,11.12,3.6,14.6M637,350.94a2.29,2.29,0,0,0-1.11-2.06,4.14,4.14,0,0,0-2.22-.36h-19a4.12,4.12,0,0,0-2.22.36,2.47,2.47,0,0,0,0,4.12,4.12,4.12,0,0,0,2.22.36h6.76v27.56a4.37,4.37,0,0,0,.4,2.47,2.8,2.8,0,0,0,4.64,0,4.37,4.37,0,0,0,.4-2.47V353.36h6.76a4.14,4.14,0,0,0,2.22-.36,2.31,2.31,0,0,0,1.11-2.06" transform="translate(3.41 4.96)"/><path class="eedfbb34-ed80-49c9-98ca-4fcd68fbd2d7" d="M555.09,366.32a8.22,8.22,0,1,0,8.23-8.22,8.23,8.23,0,0,0-8.23,8.22" transform="translate(3.41 4.96)"/><path class="1e35f369-bddf-4a6c-bd8c-c3518a7ef22d" d="M501.06,379.89a12.15,12.15,0,0,1-7.64-2.3,3.89,3.89,0,0,0-2.32-.91,2.15,2.15,0,0,0-1.58.66,2.65,2.65,0,0,0-.76,1.79c0,1.31.68,2.07,2.55,3.18a17.24,17.24,0,0,0,9.65,2.42c7.57,0,12.91-3.93,12.91-10.54a9.6,9.6,0,0,0-2.92-7.37c-1.57-1.41-3.38-2.17-6.66-2.67l-4.29-.66a7,7,0,0,1-3.93-1.61,4.17,4.17,0,0,1-1.31-3.33c0-3.28,2.27-5.57,6.51-5.57a10.8,10.8,0,0,1,6.35,1.77,4.85,4.85,0,0,0,2.19.78,2.08,2.08,0,0,0,1.67-.78,2.55,2.55,0,0,0,.62-1.67c0-1.16-.93-2.09-2.18-2.74a15.87,15.87,0,0,0-8.45-2.12c-7.47,0-12,4.23-12,10.48a8.89,8.89,0,0,0,2.65,6.89,12.23,12.23,0,0,0,6.79,2.9l4.25.6a7.13,7.13,0,0,1,3.92,1.52,4.62,4.62,0,0,1,1.4,3.73c0,3.53-2.66,5.55-7.41,5.55m-22.34,1V352a4.34,4.34,0,0,0-.4-2.47,2.79,2.79,0,0,0-4.64,0,4.34,4.34,0,0,0-.4,2.47v28.89a4.37,4.37,0,0,0,.4,2.47,2.8,2.8,0,0,0,4.64,0,4.37,4.37,0,0,0,.4-2.47m-28.79-1a12.15,12.15,0,0,1-7.64-2.3,3.89,3.89,0,0,0-2.32-.91,2.18,2.18,0,0,0-1.59.66,2.64,2.64,0,0,0-.75,1.79c0,1.31.68,2.07,2.54,3.18a17.3,17.3,0,0,0,9.66,2.42c7.56,0,12.91-3.93,12.91-10.54a9.58,9.58,0,0,0-2.93-7.37c-1.56-1.41-3.37-2.17-6.65-2.67l-4.29-.66a6.92,6.92,0,0,1-3.93-1.61,4.17,4.17,0,0,1-1.31-3.33c0-3.28,2.26-5.57,6.5-5.57a10.81,10.81,0,0,1,6.36,1.77,4.85,4.85,0,0,0,2.19.78,2.09,2.09,0,0,0,1.67-.78,2.61,2.61,0,0,0,.62-1.67c0-1.16-.93-2.09-2.19-2.74a15.85,15.85,0,0,0-8.45-2.12c-7.46,0-12,4.23-12,10.48a8.89,8.89,0,0,0,2.65,6.89,12.2,12.2,0,0,0,6.78,2.9l4.26.6a7.13,7.13,0,0,1,3.91,1.52,4.59,4.59,0,0,1,1.41,3.73c0,3.53-2.67,5.55-7.41,5.55M407,350.64a4.29,4.29,0,0,0,.69,2.24l8.67,17.25v10.79a4.37,4.37,0,0,0,.4,2.47,2.8,2.8,0,0,0,4.64,0,4.37,4.37,0,0,0,.4-2.47V370.13l8.67-17.25a4.29,4.29,0,0,0,.69-2.24,2.39,2.39,0,0,0-1.42-2,3,3,0,0,0-1.28-.3,2.19,2.19,0,0,0-1.24.38,4.34,4.34,0,0,0-1.33,1.89l-6.81,13.64-6.81-13.64a4.26,4.26,0,0,0-1.33-1.89,2.19,2.19,0,0,0-1.24-.38,3.07,3.07,0,0,0-1.29.3,2.4,2.4,0,0,0-1.41,2m-21.23,33.78h16.29a4.25,4.25,0,0,0,2.22-.35,2.32,2.32,0,0,0,1.1-2.07,2.29,2.29,0,0,0-1.1-2.06,4.25,4.25,0,0,0-2.22-.35H387.88V352a4.33,4.33,0,0,0-.41-2.47,2.78,2.78,0,0,0-4.63,0,4.33,4.33,0,0,0-.41,2.47V381.1a2.84,2.84,0,0,0,3.33,3.32m-19.54-7.21L368,382c.46,1.21.68,1.66,1.19,2.06a2.29,2.29,0,0,0,1.49.53,2.79,2.79,0,0,0,2-.81c1-1.05.7-2.19.18-3.6l-11-29.27a4.43,4.43,0,0,0-1.08-1.87,3,3,0,0,0-4,0,4.33,4.33,0,0,0-1.08,1.87l-11,29.27c-.53,1.41-.85,2.55.18,3.6a2.79,2.79,0,0,0,2,.81,2.31,2.31,0,0,0,1.48-.53c.51-.4.73-.85,1.18-2.06l1.8-4.82Zm-1.69-4.64H353l5.74-15.7Zm-51-13.36,15.58,23c1.08,1.61,1.89,2.39,3.18,2.39a2.78,2.78,0,0,0,2.06-.86,3.34,3.34,0,0,0,.78-2.59V352a4.34,4.34,0,0,0-.4-2.47,2.79,2.79,0,0,0-4.64,0,4.34,4.34,0,0,0-.4,2.47v21.7l-15.59-23c-1.08-1.61-1.89-2.39-3.17-2.39a2.81,2.81,0,0,0-2.07.86,3.45,3.45,0,0,0-.78,2.62v29.12a4.46,4.46,0,0,0,.4,2.47,2.8,2.8,0,0,0,4.64,0,4.36,4.36,0,0,0,.41-2.47Zm-21.66,18,1.79,4.82a4.11,4.11,0,0,0,1.18,2.06,2.33,2.33,0,0,0,1.49.53,2.75,2.75,0,0,0,2-.81c1-1.05.71-2.19.18-3.6l-11-29.27a4.23,4.23,0,0,0-1.08-1.87,3,3,0,0,0-4,0,4.33,4.33,0,0,0-1.09,1.87l-11,29.27c-.53,1.41-.86,2.55.18,3.6a2.77,2.77,0,0,0,2,.81,2.33,2.33,0,0,0,1.49-.53A4.11,4.11,0,0,0,275.2,382l1.79-4.82Zm-1.69-4.64h-11.5l5.75-15.7Z" transform="translate(3.41 4.96)"/><path class="2ff0f833-c7f9-4226-851d-55c757d669e4" d="M213.66,366.32a8.22,8.22,0,1,0,8.22-8.22,8.22,8.22,0,0,0-8.22,8.22" transform="translate(3.41 4.96)"/><path class="1e35f369-bddf-4a6c-bd8c-c3518a7ef22d" d="M151.55,353.36h6.56a7.66,7.66,0,0,1,6.18,2.44c1.79,2,1.89,5.35,1.89,10.67s-.1,8.65-1.89,10.67a7.66,7.66,0,0,1-6.18,2.44h-6.56Zm-4.65-4.06a3.25,3.25,0,0,0-.79,2.55V381.1a2.85,2.85,0,0,0,3.33,3.32h9.3c4.52,0,7.79-1.44,10.19-4.51,2.52-3.22,2.7-7.06,2.7-13.44s-.13-10.16-2.65-13.39c-2.42-3.05-5.72-4.56-10.24-4.56h-9.3a3.25,3.25,0,0,0-2.54.78m-35,9.91,15.58,23c1.08,1.61,1.89,2.39,3.18,2.39a2.81,2.81,0,0,0,2.06-.85,3.43,3.43,0,0,0,.78-2.6V352a4.32,4.32,0,0,0-.4-2.46,2.79,2.79,0,0,0-4.64,0,4.32,4.32,0,0,0-.4,2.46v21.71l-15.59-23c-1.08-1.62-1.89-2.4-3.17-2.4a2.8,2.8,0,0,0-2.07.86,3.45,3.45,0,0,0-.78,2.62v29.12a4.44,4.44,0,0,0,.4,2.47,2.57,2.57,0,0,0,2.33,1.23,2.54,2.54,0,0,0,2.31-1.23,4.34,4.34,0,0,0,.41-2.47Zm-33.61-5.85H92.71a4.25,4.25,0,0,0,2.22-.35,2.5,2.5,0,0,0,0-4.14,4.25,4.25,0,0,0-2.22-.35H76.17a2.84,2.84,0,0,0-3.33,3.33V381.1a2.84,2.84,0,0,0,3.33,3.32H92.71a4.25,4.25,0,0,0,2.22-.35,2.49,2.49,0,0,0,0-4.13,4.14,4.14,0,0,0-2.22-.36H78.29V368.74H90.14a4.19,4.19,0,0,0,2.21-.35,2.49,2.49,0,0,0,0-4.14,4.19,4.19,0,0,0-2.21-.35H78.29Zm-35,0h7.87c3.84,0,6.36,2.19,6.36,6.05s-2.52,6-6.36,6H43.31Zm-5,30a2.79,2.79,0,0,0,4.63,0,4.36,4.36,0,0,0,.4-2.47V370.25h8.17c7,0,11.5-4.58,11.5-10.84s-4.48-10.89-11.5-10.89H41.2a2.85,2.85,0,0,0-3.33,3.33v29.07a4.34,4.34,0,0,0,.41,2.47m-23.76-3.5a12.15,12.15,0,0,1-7.64-2.3,3.86,3.86,0,0,0-2.31-.9,2.14,2.14,0,0,0-1.59.65,2.65,2.65,0,0,0-.76,1.79c0,1.31.68,2.07,2.54,3.18a17.22,17.22,0,0,0,9.66,2.42c7.57,0,12.91-3.94,12.91-10.54a9.6,9.6,0,0,0-2.92-7.37c-1.56-1.41-3.38-2.17-6.66-2.67l-4.28-.66a6.92,6.92,0,0,1-3.94-1.61,4.17,4.17,0,0,1-1.31-3.33c0-3.28,2.27-5.57,6.51-5.57a10.88,10.88,0,0,1,6.35,1.77,4.85,4.85,0,0,0,2.2.78,2.11,2.11,0,0,0,1.66-.78,2.62,2.62,0,0,0,.63-1.67c0-1.16-.94-2.09-2.2-2.75a15.91,15.91,0,0,0-8.45-2.11c-7.46,0-12,4.23-12,10.49a8.87,8.87,0,0,0,2.64,6.88,12.2,12.2,0,0,0,6.78,2.9l4.26.6a7.13,7.13,0,0,1,3.92,1.52,4.6,4.6,0,0,1,1.41,3.73c0,3.53-2.67,5.55-7.42,5.55" transform="translate(3.41 4.96)"/></g><g class="a641f222-a584-4c0f-9157-0e3c5f3646c0"><rect class="f7099d0b-abd7-44bd-a182-b5b24e673cd8" x="389.11" y="35.15" width="282.58" height="215.13" transform="translate(384.63 676.3) rotate(-89.3)"/></g><g class="a821a081-ee71-471d-a088-9c0d2fbb03b8"><rect class="5cb57434-5260-4936-994a-d062a71d72c7" x="349.02" y="192.04" width="86.19" height="86.19" transform="translate(155.6 629.31) rotate(-89.3)"/></g></svg>